<svg width="145" height="50" viewBox="0 0 145 50" fill="none" xmlns="http://www.w3.org/2000/svg">
<rect width="145" height="50" fill="#FFED47"/>
<path d="M56.0472 34.4512H58.9239L62.9448 19.0308V34.4512H66.1811V14.0706H61.7353L57.7144 29.0186L53.6935 14.0706H49.1495V34.4512H51.9282V19.0308L56.0472 34.4512ZM79.7149 24.3621C79.7149 20.7516 77.9823 19.4019 74.3864 19.4019C72.1308 19.4019 70.3655 20.1105 69.3194 20.7516V23.6198C70.202 22.9112 72.1961 22.1688 73.9614 22.1688C75.6286 22.1688 76.3151 22.81 76.3151 24.3284V25.1382H75.7921C70.627 25.1382 68.2733 26.9266 68.2733 29.9297C68.2733 32.9328 70.0059 34.6199 72.6538 34.6199C74.6479 34.6199 75.5306 33.9788 76.1517 33.2702H76.3151C76.3151 33.6414 76.4786 34.1813 76.5766 34.4512H79.911C79.813 33.2702 79.7476 32.0217 79.7476 30.8407C79.7149 30.8407 79.7149 24.3621 79.7149 24.3621ZM76.3151 30.942C75.8901 31.5831 75.1056 32.123 73.8634 32.123C72.4577 32.123 71.7712 31.2119 71.7712 29.9634C71.7712 28.2425 72.9153 27.6352 75.8901 27.6352H76.4132V30.9757H76.3151V30.942ZM85.5665 19.6719H82.4282V38.7028H85.828V32.7641C86.7106 34.1138 87.9202 34.7549 89.4239 34.7549C92.7583 34.7549 95.0139 32.0555 95.0139 27.0953C95.0139 22.1351 92.8237 19.4357 89.5874 19.4357C88.0182 19.4357 86.7106 20.1443 85.7299 21.5952C85.7626 21.5615 85.5665 19.6719 85.5665 19.6719ZM88.4759 32.0217C86.7433 32.0217 85.7626 30.5033 85.7626 27.1628C85.7626 23.721 86.7106 22.2026 88.6393 22.2026C90.47 22.2026 91.418 23.721 91.418 27.0615C91.418 30.5033 90.47 32.0217 88.4759 32.0217ZM105.573 34.4512H109.43L104.004 26.5217L108.809 19.6719H105.409L100.604 26.5217V19.6719H97.2042V34.4512H100.604V27.2303L105.573 34.4512ZM120.774 33.4727V30.6045C119.728 31.3131 117.995 31.9543 116.328 31.9543C113.876 31.9543 112.928 30.7733 112.732 28.2425H120.839V26.353C120.839 21.224 118.649 19.3344 115.249 19.3344C111.13 19.3344 109.136 22.5738 109.136 27.0953C109.136 32.2242 111.588 34.7549 115.87 34.7549C118.257 34.7212 119.826 34.1813 120.774 33.4727ZM115.282 22.2026C116.949 22.2026 117.472 23.6535 117.472 25.4419V25.7118H112.732C112.83 23.3836 113.713 22.2026 115.282 22.2026ZM133 22.4725V19.6719H121.656V22.4725H125.677V34.4512H129.077V22.4725H133Z" fill="black"/>
<path d="M28.9796 38.0618C36.2368 38.0618 42.0884 32.0218 42.0884 24.5309C42.0884 17.04 36.2368 11 28.9796 11C21.7224 11 15.8708 17.04 15.8708 24.5309C15.8055 32.0218 21.7551 38.0618 28.9796 38.0618Z" fill="#FED42B"/>
<path d="M22.5397 18.4234L11 34.0126L14.0729 37.6231L22.6377 25.9143L21.7551 32.3255L26.5605 34.0463L32.4121 24.3959C32.1506 26.1843 31.7256 30.3346 35.5504 31.6168C41.5654 33.5064 46.8285 22.3376 49.2476 16.6688L45.7497 14.7792C43.0364 20.6504 38.8521 27.1291 37.1849 26.6904C35.5177 26.2517 37.0214 20.7517 37.9694 17.2087V17.1074L32.6409 15.2178L26.2663 25.9481L27.149 20.0768L22.5397 18.4234Z" fill="black"/>
</svg>
