<svg width="145" height="50" viewBox="0 0 145 50" fill="none" xmlns="http://www.w3.org/2000/svg">
<rect width="145" height="50" fill="#005BFF"/>
<path d="M30.5898 31.0713C33.3847 30.7155 35.6425 28.4485 35.9991 25.6399C36.1236 24.6813 36.0271 23.7067 35.717 22.7915C35.407 21.8763 34.8917 21.0448 34.211 20.3612C33.5302 19.6776 32.7021 19.1602 31.7906 18.8489C30.8791 18.5376 29.9086 18.4407 28.9539 18.5658C26.1568 18.9238 23.8991 21.1909 23.5447 23.9972C23.4202 24.9558 23.5167 25.9304 23.8267 26.8456C24.1367 27.7608 24.652 28.5923 25.3328 29.2759C26.0136 29.9595 26.8416 30.4769 27.7531 30.7882C28.6646 31.0995 29.6351 31.1964 30.5898 31.0713ZM30.9709 13.0604C33.6617 13.3449 36.1738 14.5482 38.0869 16.4693C40.0001 18.3903 41.1986 20.9127 41.4818 23.6145C42.2196 31.0893 36.0147 37.3197 28.5683 36.5789C25.8779 36.294 23.3664 35.0904 21.4537 33.1694C19.541 31.2484 18.3429 28.7263 18.0597 26.0248C17.322 18.5501 23.5269 12.3197 30.9709 13.0604ZM47.7982 13.5282H65.0288C65.6841 13.5282 66.054 14.2801 65.6595 14.8038L53.7378 30.5969H63.0786C64.7814 30.5969 66.1209 32.1523 65.7687 33.9247C65.5102 35.225 64.2955 36.1112 62.9761 36.1112H44.2633C43.6148 36.1112 43.247 35.3659 43.6371 34.849L55.5677 19.0424H47.9007C46.5813 19.0424 45.3666 18.154 45.108 16.856C44.7537 15.0835 46.0954 13.5282 47.7982 13.5282ZM122.576 13.5908C124.354 13.2148 125.919 14.5666 125.919 16.2853V35.3145C125.919 35.9791 125.154 36.3484 124.637 35.9366L109.774 24.0957V33.3585C109.774 35.0773 108.209 36.429 106.43 36.053C105.156 35.7844 104.282 34.5916 104.282 33.2847V14.3226C104.282 13.658 105.046 13.2887 105.563 13.7005L120.429 25.5414V16.3591C120.429 15.0522 121.305 13.8616 122.578 13.5908H122.576ZM83.8731 13C92.9731 13 100.35 18.2905 100.35 24.8163C100.35 31.3421 92.9731 36.6326 83.8731 36.6326C74.773 36.6326 67.3958 31.3421 67.3958 24.8163C67.3958 18.2905 74.773 13 83.8731 13ZM83.8731 18.5143C77.5857 18.5143 72.8874 21.8421 72.8874 24.8163C72.8874 27.7905 77.5857 31.1183 83.8731 31.1183C90.1604 31.1183 94.8587 27.7928 94.8587 24.8163C94.8587 21.8399 90.1604 18.5143 83.8731 18.5143Z" fill="white"/>
</svg>
