<svg width="145" height="50" viewBox="0 0 145 50" fill="none" xmlns="http://www.w3.org/2000/svg">
<path d="M145 0H0V50H145V0Z" fill="#E43225"/>
<path d="M41.5235 32.3484V11.4925H53.428V14.0601H44.003V20.5165H52.471V23.0841H44.003V29.6156H54.066V32.2583L41.5235 32.3484Z" fill="white"/>
<path d="M66.536 32.3484L62.4615 26.8078L58.3725 32.3484H55.5015L61.0985 24.991L55.1825 17.3784H58.3725L62.3745 23.0841L66.449 17.3784H69.639L64.0565 24.976L69.3345 32.3334C69.32 32.3484 66.536 32.3484 66.536 32.3484Z" fill="white"/>
<path d="M73.409 30.1112V40.3664H70.9295V24.976C70.9295 21.0871 73.8005 16.8679 78.281 16.8679C82.834 16.8679 86.2705 19.8409 86.2705 24.7358C86.2705 29.5406 82.834 32.8439 78.832 32.8439C76.918 32.919 74.279 32.0181 73.409 30.1112ZM83.704 24.8109C83.704 21.5076 81.6305 19.4355 77.875 19.6757C76.1205 19.7658 73.322 21.0871 73.554 25.8769C73.641 27.4535 75.149 30.3514 78.5855 30.3514C81.558 30.3664 83.704 28.6247 83.704 24.8109Z" fill="white"/>
<path d="M88.344 32.3484V17.2883H90.8235V18.94C92.027 17.5286 93.854 17.0331 95.855 17.0331V19.6757C95.536 19.5856 92.665 19.2553 90.8235 23.2343V32.3484H88.344Z" fill="white"/>
<path d="M96.493 24.8109C96.493 20.5016 99.5235 16.943 103.598 16.943C108.789 16.943 110.63 20.5016 110.63 25.0511V26.2974H99.1175C99.277 29.1952 101.756 30.6067 104.076 30.6067C105.758 30.5166 106.875 30.0211 108.078 28.7898L109.673 30.5316C108.151 32.0181 106.237 33.0091 103.917 33.0091C99.6105 32.8439 96.493 29.5256 96.493 24.8109ZM103.453 19.4355C101.133 19.4355 99.2915 21.5076 99.219 23.8199H108.165C108.165 21.6727 106.57 19.4355 103.453 19.4355Z" fill="white"/>
<path d="M111.993 30.1862L113.748 28.5346C113.661 28.5346 114.632 29.5256 114.792 29.6156C115.198 30.0361 115.589 30.2763 116.155 30.3664C117.677 30.7868 120.548 30.6967 120.795 28.4595C120.954 27.2132 119.997 26.5526 119.04 26.0571C117.677 25.5616 116.242 25.3964 114.966 24.7358C113.443 24.0751 112.486 22.919 112.486 21.1021C112.486 16.5526 118.721 15.8018 121.52 17.964C121.679 18.0541 123.042 19.3754 122.955 19.3754L121.201 20.8619C120.316 19.7057 119.446 19.2102 117.518 19.2102C116.561 19.2102 115.285 19.6307 114.966 20.6967C114.56 22.1832 116.242 22.7688 117.286 23.0991C118.721 23.5195 120.316 23.7598 121.52 24.5105C123.274 25.6667 123.68 28.0691 123.042 29.8859C122.317 31.958 120.171 32.7838 118.243 32.7838C116.01 32.949 114.009 32.1232 112.414 30.4715C112.24 30.5316 111.993 30.1862 111.993 30.1862Z" fill="white"/>
<path d="M124.623 30.1862L126.377 28.5346C126.29 28.5346 127.262 29.5256 127.421 29.6156C127.827 30.0361 128.306 30.2763 128.784 30.3664C130.379 30.7868 133.178 30.6967 133.424 28.4595C133.584 27.2132 132.627 26.5526 131.67 26.0571C130.307 25.5616 128.958 25.3964 127.595 24.7358C126.073 24.0751 125.116 22.919 125.116 21.1021C125.116 16.5526 131.351 15.8018 134.149 17.964C134.309 18.0541 135.672 19.3754 135.585 19.3754L133.83 20.8619C132.946 19.7057 132.076 19.2102 130.147 19.2102C129.19 19.2102 127.914 19.6307 127.595 20.6967C127.276 22.1832 128.871 22.7688 129.915 23.0991C131.351 23.5195 132.873 23.7598 134.149 24.5105C135.904 25.6667 136.31 28.0691 135.672 29.8859C134.947 31.958 132.801 32.7838 130.872 32.7838C128.639 32.949 126.638 32.1232 125.043 30.4715C124.942 30.5316 124.623 30.1862 124.623 30.1862Z" fill="white"/>
<path d="M24.892 32.3484L23.1375 27.3784H13.3935L11.6245 32.3484H9L16.83 11.4925H19.6285L27.3715 32.2583H24.892V32.3484ZM18.106 14.4655L14.423 24.8108H22.021L18.106 14.4655Z" fill="white"/>
<path d="M28.9665 32.3484V11.4925H31.446V32.2583H28.9665V32.3484Z" fill="white"/>
<path d="M35.2885 32.3484V17.6186H37.768V32.3484H35.2885Z" fill="white"/>
<path d="M40.1605 12.8138C40.1605 12.7237 40.1605 12.7237 40.1605 12.7237C40.1605 12.6336 40.1605 12.6336 40.1605 12.6336C38.2465 12.5435 36.6515 10.982 36.6515 9C36.5645 9 36.5645 9 36.492 9C36.4195 9 36.405 9 36.3325 9C36.2455 10.982 34.7375 12.6336 32.8235 12.6336C32.8235 12.7237 32.8235 12.7237 32.8235 12.7237C32.8235 12.8138 32.8235 12.8138 32.8235 12.8138C34.7375 12.9039 36.3325 14.4655 36.3325 16.4474C36.4195 16.4474 36.4195 16.4474 36.492 16.4474C36.5645 16.4474 36.579 16.4474 36.6515 16.4474C36.724 14.4655 38.2465 12.9039 40.1605 12.8138Z" fill="white"/>
</svg>
