<svg width="145" height="50" viewBox="0 0 145 50" fill="none" xmlns="http://www.w3.org/2000/svg">
<path d="M0 50H145V-2.04096e-06H0V50Z" fill="url(#paint0_linear_61_152)"/>
<path d="M62.8835 13.7123C62.8835 14.864 61.8278 15.7975 60.5255 15.7975C59.2232 15.7975 58.1675 14.8639 58.1675 13.7123C58.1675 12.5607 59.2232 11.6271 60.5255 11.6271C61.8278 11.6271 62.8835 12.5607 62.8835 13.7123Z" fill="#7A166E"/>
<path d="M59.9278 27.3011C59.9278 30.3201 57.1792 32.7676 53.7885 32.7676C50.3978 32.7676 47.6493 30.3201 47.6493 27.3011C47.6493 24.282 50.3978 21.8345 53.7885 21.8345C57.1792 21.8345 59.9278 24.282 59.9278 27.3011Z" fill="#E20F82"/>
<path d="M132.833 14.1706C132.833 16.4739 130.736 18.3412 128.15 18.3412C125.563 18.3412 123.466 16.4739 123.466 14.1706C123.466 11.8672 125.563 9.99997 128.15 9.99997C130.737 9.99997 132.833 11.8672 132.833 14.1706Z" fill="#E20F82"/>
<path d="M28.3116 23.7235C28.3116 28.1542 24.2125 31.7459 19.1558 31.7459C14.0991 31.7459 10 28.154 10 23.7235C10 19.2929 14.0991 15.701 19.1558 15.701C24.2125 15.701 28.3116 19.2929 28.3116 23.7235Z" fill="#7A166E"/>
<path d="M25.1851 32.1451C25.1851 34.4484 23.0881 36.3157 20.5014 36.3157C17.9147 36.3157 15.8175 34.4484 15.8175 32.1451C15.8175 29.8418 17.9145 27.9745 20.5014 27.9745C23.0883 27.9745 25.1851 29.8418 25.1851 32.1451Z" fill="#8E1A7F"/>
<path d="M54.6197 25.8054C54.6197 30.2308 50.5454 33.8183 45.5192 33.8183C40.4931 33.8183 36.4188 30.2308 36.4188 25.8054C36.4188 21.38 40.4931 17.7925 45.5192 17.7925C50.5454 17.7925 54.6197 21.38 54.6197 25.8054Z" fill="#B2348B"/>
<path d="M67.0713 25.8054C67.0713 30.2308 62.997 33.8183 57.9708 33.8183C52.9446 33.8183 48.8703 30.2308 48.8703 25.8054C48.8703 21.38 52.9446 17.7925 57.9708 17.7925C62.997 17.7925 67.0713 21.38 67.0713 25.8054Z" fill="#7A166E"/>
<path d="M62.8903 29.8485C62.8903 34.2738 58.816 37.8614 53.7899 37.8614C48.7637 37.8614 44.6894 34.2738 44.6894 29.8485C44.6894 25.4231 48.7637 21.8356 53.7899 21.8356C58.816 21.8356 62.8903 25.4231 62.8903 29.8485Z" fill="#7A166E"/>
<path d="M50.4593 35.2014C50.4593 37.5047 48.3623 39.372 45.7756 39.372C43.1889 39.372 41.0917 37.5047 41.0917 35.2014C41.0917 32.898 43.1887 31.0308 45.7756 31.0308C48.3625 31.0308 50.4593 32.898 50.4593 35.2014Z" fill="#8E1A7F"/>
<path d="M60.8864 26.2925C60.8864 29.2964 58.0803 31.7316 54.6188 31.7316C51.1572 31.7316 48.3511 29.2964 48.3511 26.2925C48.3511 23.2887 51.1572 20.8534 54.6188 20.8534C58.0803 20.8534 60.8864 23.2887 60.8864 26.2925Z" fill="#E20F82"/>
<path d="M52.9049 38.355C52.9049 39.5066 51.8492 40.4402 50.5469 40.4402C49.2447 40.4402 48.1889 39.5066 48.1889 38.355C48.1889 37.2034 49.2447 36.2698 50.5469 36.2698C51.8492 36.2698 52.9049 37.2034 52.9049 38.355Z" fill="#E20F82"/>
<path d="M111.642 29.8196C111.642 34.2449 107.568 37.8325 102.542 37.8325C97.5156 37.8325 93.4413 34.2449 93.4413 29.8196C93.4413 25.3942 97.5156 21.8067 102.542 21.8067C107.568 21.8067 111.642 25.3942 111.642 29.8196Z" fill="#B2348B"/>
<path d="M101.6 25.8054C101.6 30.2308 97.5256 33.8183 92.4994 33.8183C87.4733 33.8183 83.399 30.2308 83.399 25.8054C83.399 21.38 87.4733 17.7925 92.4994 17.7925C97.5256 17.7925 101.6 21.38 101.6 25.8054Z" fill="#B2348B"/>
<path d="M92.8943 27.5825C92.8943 34.4286 86.5863 39.9785 78.8048 39.9785C71.0232 39.9785 64.7153 34.4286 64.7153 27.5825C64.7153 20.7364 71.0232 15.1865 78.8048 15.1865C86.5863 15.1865 92.8943 20.7364 92.8943 27.5825Z" fill="#B2348B"/>
<path d="M71.095 19.3574C71.095 21.6607 68.998 23.528 66.4111 23.528C63.8242 23.528 61.7274 21.6607 61.7274 19.3574C61.7274 17.0541 63.8244 15.1868 66.4111 15.1868C68.9979 15.1868 71.095 17.0541 71.095 19.3574Z" fill="#E20F82"/>
<path d="M94.5657 24.7789C94.5657 29.2042 90.4914 32.7917 85.4653 32.7917C80.4391 32.7917 76.3648 29.2042 76.3648 24.7789C76.3648 20.3535 80.4391 16.766 85.4653 16.766C90.4914 16.766 94.5657 20.3535 94.5657 24.7789Z" fill="#7A166E"/>
<path d="M108.739 20.66C108.739 25.0854 104.665 28.6729 99.6384 28.6729C94.6122 28.6729 90.5379 25.0854 90.5379 20.66C90.5379 16.2347 94.6122 12.6472 99.6384 12.6472C104.665 12.6472 108.739 16.2347 108.739 20.66Z" fill="#E20F82"/>
<path d="M101.866 29.3595C101.866 31.6629 99.7693 33.5302 97.1826 33.5302C94.596 33.5302 92.4987 31.6629 92.4987 29.3595C92.4987 27.0562 94.5958 25.1889 97.1826 25.1889C99.7695 25.1889 101.866 27.0562 101.866 29.3595Z" fill="#E20F82"/>
<path d="M99.3774 36.8294C99.3774 39.1327 97.2804 41 94.6937 41C92.107 41 90.0098 39.1327 90.0098 36.8294C90.0098 34.5261 92.1068 32.6588 94.6937 32.6588C97.2806 32.6588 99.3774 34.5261 99.3774 36.8294Z" fill="#8E1A7F"/>
<path d="M92.8943 34.1838C92.8943 35.3354 91.8386 36.269 90.5363 36.269C89.234 36.269 88.1783 35.3354 88.1783 34.1838C88.1783 33.0322 89.234 32.0986 90.5363 32.0986C91.8386 32.0986 92.8943 33.0322 92.8943 34.1838Z" fill="#E20F82"/>
<path d="M73.404 29.3595C73.404 33.7849 69.3297 37.3724 64.3036 37.3724C59.2774 37.3724 55.2031 33.7849 55.2031 29.3595C55.2031 24.9342 59.2774 21.3466 64.3036 21.3466C69.3297 21.3466 73.404 24.9342 73.404 29.3595Z" fill="#E20F82"/>
<path d="M122.848 28.3421C122.848 32.7674 118.774 36.3549 113.748 36.3549C108.721 36.3549 104.647 32.7674 104.647 28.3421C104.647 23.9167 108.722 20.3292 113.748 20.3292C118.774 20.3292 122.848 23.9167 122.848 28.3421Z" fill="#7A166E"/>
<path d="M133.022 27.3696C133.022 31.7949 128.948 35.3824 123.922 35.3824C118.896 35.3824 114.822 31.7949 114.822 27.3696C114.822 22.9442 118.896 19.3567 123.922 19.3567C128.948 19.3567 133.022 22.9442 133.022 27.3696Z" fill="#E20F82"/>
<path d="M122.848 20.66C122.848 25.0854 118.774 28.6729 113.748 28.6729C108.721 28.6729 104.647 25.0854 104.647 20.66C104.647 16.2347 108.722 12.6472 113.748 12.6472C118.774 12.6472 122.848 16.2347 122.848 20.66Z" fill="#B2348B"/>
<path d="M111.18 36.2695C111.18 37.4212 110.124 38.3547 108.822 38.3547C107.52 38.3547 106.464 37.4211 106.464 36.2695C106.464 35.1179 107.52 34.1843 108.822 34.1843C110.124 34.1843 111.18 35.1179 111.18 36.2695Z" fill="#8E1A7F"/>
<path d="M112.908 13.7123C112.908 14.864 111.853 15.7975 110.55 15.7975C109.248 15.7975 108.192 14.8639 108.192 13.7123C108.192 12.5607 109.248 11.6271 110.55 11.6271C111.853 11.6271 112.908 12.5607 112.908 13.7123Z" fill="#E20F82"/>
<path d="M38.7023 32.4608C38.7023 36.8862 34.628 40.4737 29.6019 40.4737C24.5757 40.4737 20.5014 36.8862 20.5014 32.4608C20.5014 28.0355 24.5757 24.448 29.6019 24.448C34.628 24.448 38.7023 28.0355 38.7023 32.4608Z" fill="#8E1A7F"/>
<path d="M43.9329 20.6095C43.9329 25.0349 39.8586 28.6224 34.8325 28.6224C29.8063 28.6224 25.732 25.0349 25.732 20.6095C25.732 16.1842 29.8063 12.5967 34.8325 12.5967C39.8586 12.5967 43.9329 16.1842 43.9329 20.6095Z" fill="#E20F82"/>
<path d="M44.541 31.7464C44.541 34.0497 42.444 35.917 39.8573 35.917C37.2704 35.917 35.1734 34.0497 35.1734 31.7464C35.1734 29.443 37.2704 27.5758 39.8573 27.5758C42.4442 27.5758 44.541 29.443 44.541 31.7464Z" fill="#E20F82"/>
<path d="M25.1987 14.1706C25.1987 16.4739 23.1017 18.3412 20.515 18.3412C17.9282 18.3412 15.8311 16.4739 15.8311 14.1706C15.8311 11.8672 17.9282 9.99997 20.515 9.99997C23.1019 9.99997 25.1987 11.8672 25.1987 14.1706Z" fill="#E20F82"/>
<path d="M19.1037 32.6882L15.654 21.8181H17.9168L20.5672 30.1667L23.408 21.8172L25.5174 21.818L28.368 30.2112L31.0305 21.8202L33.2933 21.8173L29.8422 32.6861L27.2194 32.6839L24.4638 24.5664L21.7055 32.6858L19.1037 32.6882Z" fill="white"/>
<path d="M34.8539 21.8237H37.008V32.681H34.8539V21.8237Z" fill="white"/>
<path d="M41.6125 30.9779H46.8566V32.6809H39.503V21.8236H41.6125L41.6125 30.9779Z" fill="white"/>
<path d="M53.4834 30.9905C54.7015 30.9905 55.697 30.6399 56.4398 29.9386C57.2122 29.2373 57.5986 28.3356 57.5986 27.2712C57.5986 26.1817 57.2122 25.305 56.4398 24.6039C55.6823 23.9027 54.6867 23.552 53.4834 23.552H50.5422V30.9906L53.4834 30.9905ZM53.4834 21.8363C55.2512 21.8363 56.722 22.3623 57.8808 23.4018C59.0544 24.441 59.6485 25.7311 59.6485 27.2586C59.6485 28.774 59.0544 30.0637 57.8808 31.1157C56.722 32.155 55.2511 32.6811 53.4834 32.6811H48.4176V21.8237H53.4834V21.8363Z" fill="white"/>
<path d="M67.1509 31.0085C68.1312 31.0085 68.9038 30.3445 68.9038 29.4925C68.9038 28.6404 68.1312 27.9764 67.1509 27.9764H63.7488V31.0211H67.1509V31.0085ZM63.7488 23.5033V26.36H66.7497C67.6857 26.36 68.3987 25.7335 68.3987 24.9318C68.3987 24.1298 67.6857 23.5033 66.7497 23.5033H63.7488ZM71.0132 29.5802C71.0132 30.4696 70.6419 31.2089 69.8842 31.7978C69.1266 32.3867 68.2354 32.6875 67.1359 32.6875H61.6245V21.8245H66.7349C67.7896 21.8245 68.6811 22.1251 69.409 22.6889C70.1518 23.2654 70.5083 23.9795 70.5083 24.8313C70.5083 25.7836 70.0628 26.5103 69.2009 27.0491C70.3302 27.5503 71.0133 28.4523 71.0133 29.5799" fill="white"/>
<path d="M75.1279 30.9833H80.8324V32.6872H73.0183V21.8243H80.7431V23.5283H75.1279V26.3473H80.2829V28.0387H75.1279V30.9833Z" fill="white"/>
<path d="M84.8445 23.5033V27.1366H87.8749C89.0038 27.1366 89.8952 26.3349 89.8952 25.3201C89.8952 24.3177 88.989 23.5033 87.8749 23.5033H84.8445ZM90.0737 32.6872L87.3402 28.7281H84.8445V32.6872H82.7348V21.8244H87.8896C89.0484 21.8244 90.0289 22.1627 90.8162 22.8517C91.6185 23.5159 92.0344 24.3428 92.0344 25.3201C92.0344 26.6983 91.0094 27.9637 89.4792 28.4649L92.4058 32.6873L90.0737 32.6872Z" fill="white"/>
<path d="M96.1347 23.4979V27.1332H99.1651C100.294 27.1332 101.186 26.3309 101.186 25.3156C101.186 24.3127 100.279 23.4979 99.1651 23.4979H96.1347ZM101.349 32.6869L98.6304 28.7254H96.1347V32.6869H94.025V21.8181H99.1799C100.339 21.8181 101.319 22.1567 102.106 22.8461C102.909 23.5106 103.325 24.3379 103.325 25.3156C103.325 26.6946 102.3 27.9608 100.769 28.4622L103.696 32.6869L101.349 32.6869Z" fill="white"/>
<path d="M105.241 21.8201H107.351V32.6875H105.241V21.8201Z" fill="white"/>
<path d="M111.954 30.9833H117.659V32.6872H109.845V21.8243H117.57V23.5282H111.954V26.3474H117.109V28.0387H111.954V30.9833Z" fill="white"/>
<path d="M119.132 30.2147L120.959 29.3131C121.479 30.5403 122.533 31.1414 124.153 31.1414C125.758 31.1414 126.545 30.5653 126.545 29.7137C126.545 29.2629 126.322 28.9373 125.906 28.7118C125.49 28.474 124.717 28.2109 123.618 27.9355C122.385 27.6224 121.776 27.4222 120.914 26.9463C120.082 26.4453 119.667 25.7315 119.667 24.7546C119.667 23.7905 120.068 23.0391 120.885 22.4756C121.687 21.8995 122.667 21.6241 123.811 21.6241C125.876 21.6241 127.466 22.5257 128.298 24.0159L126.515 24.88C125.98 23.8781 125.074 23.3647 123.811 23.3647C122.578 23.3647 121.791 23.8907 121.791 24.7172C121.791 25.5186 122.415 25.8944 124.391 26.4077C124.881 26.5455 125.237 26.6457 125.46 26.7209C125.698 26.7835 126.01 26.8963 126.411 27.0339C126.827 27.1716 127.154 27.3344 127.347 27.4722C128.03 27.9231 128.758 28.6618 128.669 29.7014C128.669 30.6781 128.253 31.467 127.406 32.0431C126.574 32.6191 125.475 32.8946 124.108 32.8946C121.613 32.8821 119.8 31.8802 119.132 30.2147" fill="white"/>
<defs>
<linearGradient id="paint0_linear_61_152" x1="1.32691" y1="50.9223" x2="121.28" y2="-26.6419" gradientUnits="userSpaceOnUse">
<stop stop-color="#E5006E"/>
<stop offset="0.8032" stop-color="#4C217A"/>
<stop offset="1" stop-color="#4C217A"/>
</linearGradient>
</defs>
</svg>
